<svg id="Layer_1" data-name="Layer 1" xmlns="http://www.w3.org/2000/svg" viewBox="0 0 104.14 133.63"><path d="M56.79,20.31H48.36A18.7,18.7,0,0,0,29.71,39V51.53A18.7,18.7,0,0,0,48.36,70.17h8.43A18.7,18.7,0,0,0,75.43,51.53V39A18.7,18.7,0,0,0,56.79,20.31ZM64.58,52a8.4,8.4,0,0,1-8.38,8.38H48.91A8.4,8.4,0,0,1,40.53,52V38.72a8.41,8.41,0,0,1,8.38-8.39H56.2a8.41,8.41,0,0,1,8.38,8.39Z"/><polygon points="20.68 120.1 20.68 96.74 33.54 85.6 71.46 85.6 84.43 96.64 84.43 120.53 95.79 120.53 95.79 91.92 76.39 75.31 28.61 75.31 9.56 91.41 9.56 120.53 20.67 120.53 20.68 120.1"/></svg>